<?xml version="1.0" encoding="UTF-8" standalone="no"?>
<svg
   xmlns:dc="http://purl.org/dc/elements/1.1/"
   xmlns:cc="http://creativecommons.org/ns#"
   xmlns:rdf="http://www.w3.org/1999/02/22-rdf-syntax-ns#"
   xmlns:svg="http://www.w3.org/2000/svg"
   xmlns="http://www.w3.org/2000/svg"
   xmlns:sodipodi="http://sodipodi.sourceforge.net/DTD/sodipodi-0.dtd"
   xmlns:inkscape="http://www.inkscape.org/namespaces/inkscape"
   class="logo__image"
   role="img"
   aria-labelledby="footer-logo-title"
   version="1.1"
   id="svg7"
   sodipodi:docname="bloomberg-logo.svg"
   width="700"
   height="700"
   inkscape:export-filename="C:\Users\suitedoalex\sites\bloomberg-logo-0.png"
   inkscape:export-xdpi="561.73712"
   inkscape:export-ydpi="561.73712"
   inkscape:version="0.92.4 (5da689c313, 2019-01-14)">
  <metadata
     id="metadata13">
    <rdf:RDF>
      <cc:Work
         rdf:about="">
        <dc:format>image/svg+xml</dc:format>
        <dc:type
           rdf:resource="http://purl.org/dc/dcmitype/StillImage" />
        <dc:title>Bloomberg</dc:title>
      </cc:Work>
    </rdf:RDF>
  </metadata>
  <defs
     id="defs11" />
  <sodipodi:namedview
     pagecolor="#ffffff"
     bordercolor="#666666"
     borderopacity="1"
     objecttolerance="10"
     gridtolerance="10"
     guidetolerance="10"
     inkscape:pageopacity="0"
     inkscape:pageshadow="2"
     inkscape:window-width="1600"
     inkscape:window-height="837"
     id="namedview9"
     showgrid="false"
     inkscape:zoom="0.59"
     inkscape:cx="490.96527"
     inkscape:cy="325.94498"
     inkscape:window-x="-8"
     inkscape:window-y="-8"
     inkscape:window-maximized="1"
     inkscape:current-layer="svg7" />
  <title
     id="footer-logo-title">Bloomberg</title>
  <g
     id="g5"
     style="fill:currentColor;fill-rule:evenodd"
     transform="matrix(4.677436,0,0,4.677436,60.258566,290.6106)"
     inkscape:export-filename="C:\Users\suitedoalex\sites\bloomberg-logo-4.png"
     inkscape:export-xdpi="66.290596"
     inkscape:export-ydpi="66.290596">
    <path
       d="m 3.284,10.896 h 3.13 c 2.64,0 3.882,0.672 3.882,2.588 0,2.406 -2.33,2.69 -4.011,2.69 H 3.284 Z M 0.023,18.97 H 6.62 c 3.467,0 6.935,-1.241 6.935,-5.227 0,-2.353 -1.656,-4.166 -3.96,-4.424 V 9.266 C 11.485,8.698 12.779,7.327 12.779,5.256 12.78,1.917 9.933,0.65 7.165,0.65 H 0.023 Z M 3.283,3.445 h 2.691 c 2.459,0 3.545,0.776 3.545,2.355 0,1.371 -1.086,2.303 -3.26,2.303 H 3.284 V 3.444 Z M 15.685,18.97 H 18.79 V 0.215 h -3.105 z m 5.181,-6.211 c 0,3.908 3.001,6.521 6.754,6.521 3.751,0 6.752,-2.613 6.752,-6.521 0,-3.907 -3.001,-6.52 -6.752,-6.52 -3.753,0 -6.754,2.613 -6.754,6.52 z m 3.105,0 c 0,-1.94 1.37,-3.726 3.649,-3.726 2.276,0 3.647,1.785 3.647,3.726 0,1.941 -1.37,3.726 -3.647,3.726 -2.278,0 -3.65,-1.785 -3.65,-3.726 z m 11.805,0 c 0,3.908 3.002,6.521 6.754,6.521 3.751,0 6.753,-2.613 6.753,-6.521 0,-3.907 -3.002,-6.52 -6.753,-6.52 -3.752,0 -6.754,2.613 -6.754,6.52 z m 3.105,0 c 0,-1.94 1.372,-3.726 3.649,-3.726 2.277,0 3.648,1.785 3.648,3.726 0,1.941 -1.371,3.726 -3.648,3.726 -2.277,0 -3.65,-1.785 -3.65,-3.726 z m 12.297,-6.21 h 2.95 v 1.94 h 0.051 c 0.544,-1.163 1.734,-2.25 3.804,-2.25 1.915,0 3.235,0.75 3.882,2.303 0.905,-1.58 2.224,-2.304 4.087,-2.304 3.313,0 4.477,2.355 4.477,5.33 v 7.401 h -3.105 v -7.037 c 0,-1.553 -0.466,-2.899 -2.303,-2.899 -1.94,0 -2.665,1.604 -2.665,3.208 v 6.728 H 59.25 v -7.4 c 0,-1.527 -0.621,-2.536 -2.122,-2.536 -2.044,0 -2.845,1.501 -2.845,3.157 v 6.78 H 51.177 V 6.548 M 72.946,18.97 h 2.95 v -1.864 h 0.051 c 0.906,1.5 2.536,2.174 4.27,2.174 3.829,0 6.132,-2.846 6.132,-6.521 0,-3.673 -2.458,-6.52 -6.003,-6.52 -2.329,0 -3.571,1.087 -4.217,1.888 H 76.051 V 0.216 h -3.105 v 18.753 z m 10.298,-6.211 c 0,1.941 -1.372,3.726 -3.648,3.726 -2.277,0 -3.649,-1.785 -3.649,-3.726 0,-1.94 1.372,-3.726 3.649,-3.726 2.276,0 3.648,1.785 3.648,3.726 z m 17.084,1.086 v -0.853 c 0,-4.32 -2.354,-6.754 -5.822,-6.754 -3.752,0 -6.754,2.614 -6.754,6.521 0,3.908 3.002,6.521 6.754,6.521 1.966,0 3.803,-0.7 5.252,-2.485 l -2.225,-1.68 c -0.775,0.957 -1.785,1.68 -3.337,1.68 -1.734,0 -3.131,-1.11 -3.339,-2.95 z m -9.47,-2.327 c 0.233,-1.786 1.371,-2.95 3.208,-2.95 1.94,0 3.131,1.138 3.156,2.95 h -6.365 z m 11.495,-4.969 h 3.104 v 1.966 h 0.053 c 0.672,-1.422 2.043,-2.277 3.674,-2.277 0.388,0 0.75,0.079 1.112,0.182 v 3.002 c -0.518,-0.13 -1.01,-0.233 -1.5,-0.233 -2.924,0 -3.34,2.458 -3.34,3.13 v 6.65 h -3.103 V 6.55 m 18.563,-10e-4 v 1.864 h -0.052 c -0.905,-1.502 -2.535,-2.175 -4.27,-2.175 -3.83,0 -6.131,2.848 -6.131,6.521 0,3.519 2.458,6.366 6.183,6.366 1.553,0 3.157,-0.595 4.063,-1.811 h 0.051 v 0.906 c 0,2.458 -0.931,4.164 -3.932,4.164 -1.734,0 -3.027,-0.646 -4.27,-1.785 l -1.863,2.536 c 1.76,1.553 3.856,2.044 6.159,2.044 4.838,0 7.012,-2.846 7.012,-7.322 V 6.549 Z m -3.674,2.484 c 2.251,0 3.674,1.501 3.674,3.648 0,2.072 -1.397,3.65 -3.7,3.65 -2.096,0 -3.648,-1.63 -3.648,-3.597 0,-2.2 1.5,-3.701 3.674,-3.701 z"
       id="path3"
       inkscape:connector-curvature="0" />
  </g>
</svg>
